<svg xmlns="http://www.w3.org/2000/svg" version="1.1" width="700" height="700">
<rect x="0" y="0" width="700" height="700" fill="#645b50" />
<g transform="scale(1.000000) translate(0.5 0.5)">
<ellipse fill="#c39278" fill-opacity="0.501961" cx="315" cy="518" rx="214" ry="214" />
<ellipse fill="#160b06" fill-opacity="0.501961" cx="493" cy="432" rx="76" ry="76" />
<ellipse fill="#402819" fill-opacity="0.501961" cx="250" cy="526" rx="82" ry="82" />
<ellipse fill="#cdc1bb" fill-opacity="0.501961" cx="442" cy="584" rx="79" ry="79" />
<ellipse fill="#180700" fill-opacity="0.501961" cx="145" cy="348" rx="65" ry="65" />
<ellipse fill="#160602" fill-opacity="0.501961" cx="334" cy="146" rx="151" ry="151" />
<ellipse fill="#231510" fill-opacity="0.501961" cx="539" cy="324" rx="114" ry="114" />
<ellipse fill="#fbaf85" fill-opacity="0.501961" cx="336" cy="385" rx="97" ry="97" />
<ellipse fill="#bea093" fill-opacity="0.501961" cx="545" cy="552" rx="55" ry="55" />
<ellipse fill="#3f3f34" fill-opacity="0.501961" cx="175" cy="477" rx="71" ry="71" />
<ellipse fill="#291711" fill-opacity="0.501961" cx="565" cy="693" rx="84" ry="84" />
<ellipse fill="#26140b" fill-opacity="0.501961" cx="210" cy="265" rx="53" ry="53" />
<ellipse fill="#b6a8a2" fill-opacity="0.501961" cx="300" cy="674" rx="83" ry="83" />
<ellipse fill="#ffd6bd" fill-opacity="0.501961" cx="382" cy="317" rx="33" ry="33" />
<ellipse fill="#000000" fill-opacity="0.501961" cx="99" cy="699" rx="39" ry="39" />
<ellipse fill="#ad6434" fill-opacity="0.501961" cx="229" cy="354" rx="50" ry="50" />
<ellipse fill="#e1d9d3" fill-opacity="0.501961" cx="376" cy="585" rx="32" ry="32" />
<ellipse fill="#af9890" fill-opacity="0.501961" cx="172" cy="646" rx="53" ry="53" />
<ellipse fill="#e1a27a" fill-opacity="0.501961" cx="287" cy="526" rx="26" ry="26" />
<ellipse fill="#855029" fill-opacity="0.501961" cx="330" cy="366" rx="33" ry="33" />
<ellipse fill="#342a22" fill-opacity="0.501961" cx="318" cy="555" rx="33" ry="33" />
<ellipse fill="#2f211b" fill-opacity="0.501961" cx="464" cy="692" rx="36" ry="36" />
<ellipse fill="#241e17" fill-opacity="0.501961" cx="666" cy="685" rx="42" ry="42" />
<ellipse fill="#64827d" fill-opacity="0.501961" cx="41" cy="131" rx="157" ry="157" />
<ellipse fill="#e9e3dc" fill-opacity="0.501961" cx="416" cy="550" rx="29" ry="29" />
<ellipse fill="#70584a" fill-opacity="0.501961" cx="466" cy="352" rx="44" ry="44" />
<ellipse fill="#ffe9e0" fill-opacity="0.501961" cx="337" cy="316" rx="20" ry="20" />
<ellipse fill="#d57f4c" fill-opacity="0.501961" cx="376" cy="498" rx="41" ry="41" />
<ellipse fill="#b49385" fill-opacity="0.501961" cx="568" cy="503" rx="31" ry="31" />
<ellipse fill="#382518" fill-opacity="0.501961" cx="288" cy="282" rx="30" ry="30" />
<ellipse fill="#31241d" fill-opacity="0.501961" cx="459" cy="242" rx="61" ry="61" />
<ellipse fill="#5a7975" fill-opacity="0.501961" cx="44" cy="499" rx="115" ry="115" />
<ellipse fill="#54726c" fill-opacity="0.501961" cx="544" cy="147" rx="74" ry="74" />
<ellipse fill="#f5c5b4" fill-opacity="0.501961" cx="382" cy="411" rx="29" ry="29" />
<ellipse fill="#261c17" fill-opacity="0.501961" cx="611" cy="332" rx="58" ry="58" />
<ellipse fill="#503f34" fill-opacity="0.501961" cx="491" cy="431" rx="81" ry="81" />
<ellipse fill="#d4c6bd" fill-opacity="0.501961" cx="323" cy="616" rx="27" ry="27" />
<ellipse fill="#ffcbaa" fill-opacity="0.501961" cx="257" cy="440" rx="16" ry="16" />
<ellipse fill="#ae5f2f" fill-opacity="0.501961" cx="218" cy="417" rx="36" ry="36" />
<ellipse fill="#9c8679" fill-opacity="0.501961" cx="427" cy="622" rx="54" ry="54" />
<ellipse fill="#30170c" fill-opacity="0.501961" cx="173" cy="469" rx="23" ry="23" />
<ellipse fill="#2b2724" fill-opacity="0.501961" cx="223" cy="563" rx="31" ry="31" />
<ellipse fill="#a58f82" fill-opacity="0.501961" cx="497" cy="564" rx="63" ry="63" />
<ellipse fill="#d0c1b7" fill-opacity="0.501961" cx="266" cy="620" rx="25" ry="25" />
<ellipse fill="#566f69" fill-opacity="0.501961" cx="621" cy="95" rx="147" ry="147" />
<ellipse fill="#688681" fill-opacity="0.501961" cx="191" cy="0" rx="48" ry="48" />
<ellipse fill="#60746e" fill-opacity="0.501961" cx="62" cy="277" rx="59" ry="59" />
<ellipse fill="#e79d74" fill-opacity="0.501961" cx="407" cy="311" rx="22" ry="22" />
<ellipse fill="#2b221b" fill-opacity="0.501961" cx="425" cy="58" rx="40" ry="40" />
<ellipse fill="#9d8279" fill-opacity="0.501961" cx="157" cy="560" rx="36" ry="36" />
<ellipse fill="#5f330f" fill-opacity="0.501961" cx="252" cy="362" rx="15" ry="15" />
<ellipse fill="#493b30" fill-opacity="0.501961" cx="304" cy="250" rx="56" ry="56" />
<ellipse fill="#d89a77" fill-opacity="0.501961" cx="216" cy="401" rx="21" ry="21" />
<ellipse fill="#425f5a" fill-opacity="0.501961" cx="611" cy="595" rx="37" ry="37" />
<ellipse fill="#3d281a" fill-opacity="0.501961" cx="427" cy="482" rx="16" ry="16" />
<ellipse fill="#e1d7d0" fill-opacity="0.501961" cx="446" cy="530" rx="19" ry="19" />
<ellipse fill="#2d211b" fill-opacity="0.501961" cx="549" cy="280" rx="59" ry="59" />
<ellipse fill="#261c19" fill-opacity="0.501961" cx="217" cy="190" rx="38" ry="38" />
<ellipse fill="#e3af92" fill-opacity="0.501961" cx="287" cy="398" rx="31" ry="31" />
<ellipse fill="#af7953" fill-opacity="0.501961" cx="294" cy="463" rx="31" ry="31" />
<ellipse fill="#354d4a" fill-opacity="0.501961" cx="8" cy="677" rx="56" ry="56" />
<ellipse fill="#2b221c" fill-opacity="0.501961" cx="183" cy="278" rx="38" ry="38" />
<ellipse fill="#2b2320" fill-opacity="0.501961" cx="153" cy="372" rx="37" ry="37" />
<ellipse fill="#19272d" fill-opacity="0.501961" cx="349" cy="377" rx="10" ry="10" />
<ellipse fill="#415955" fill-opacity="0.501961" cx="688" cy="562" rx="96" ry="96" />
<ellipse fill="#3d322c" fill-opacity="0.501961" cx="296" cy="579" rx="21" ry="21" />
<ellipse fill="#516862" fill-opacity="0.501961" cx="658" cy="249" rx="44" ry="44" />
<ellipse fill="#c5784a" fill-opacity="0.501961" cx="405" cy="442" rx="23" ry="23" />
<ellipse fill="#9b7762" fill-opacity="0.501961" cx="275" cy="537" rx="35" ry="35" />
<ellipse fill="#9d5020" fill-opacity="0.501961" cx="206" cy="462" rx="21" ry="21" />
<ellipse fill="#978074" fill-opacity="0.501961" cx="364" cy="660" rx="49" ry="49" />
<ellipse fill="#9c887d" fill-opacity="0.501961" cx="161" cy="618" rx="55" ry="55" />
<ellipse fill="#5a756f" fill-opacity="0.501961" cx="20" cy="344" rx="49" ry="49" />
<ellipse fill="#241c18" fill-opacity="0.501961" cx="240" cy="63" rx="34" ry="34" />
<ellipse fill="#d69b79" fill-opacity="0.501961" cx="271" cy="328" rx="26" ry="26" />
<ellipse fill="#51423a" fill-opacity="0.501961" cx="260" cy="568" rx="37" ry="37" />
<ellipse fill="#4d625d" fill-opacity="0.501961" cx="607" cy="447" rx="41" ry="41" />
<ellipse fill="#e9bba5" fill-opacity="0.501961" cx="398" cy="405" rx="24" ry="24" />
<ellipse fill="#32251f" fill-opacity="0.501961" cx="94" cy="358" rx="27" ry="27" />
<ellipse fill="#170d09" fill-opacity="0.501961" cx="108" cy="660" rx="14" ry="14" />
<ellipse fill="#42342b" fill-opacity="0.501961" cx="392" cy="202" rx="89" ry="89" />
<ellipse fill="#45362c" fill-opacity="0.501961" cx="266" cy="260" rx="52" ry="52" />
<ellipse fill="#6a350d" fill-opacity="0.501961" cx="356" cy="343" rx="9" ry="9" />
<ellipse fill="#dca68a" fill-opacity="0.501961" cx="355" cy="489" rx="21" ry="21" />
<ellipse fill="#0f0300" fill-opacity="0.501961" cx="137" cy="699" rx="16" ry="16" />
<ellipse fill="#405a56" fill-opacity="0.501961" cx="691" cy="410" rx="58" ry="58" />
<ellipse fill="#4c2707" fill-opacity="0.501961" cx="244" cy="413" rx="10" ry="10" />
<ellipse fill="#f1cdba" fill-opacity="0.501961" cx="310" cy="319" rx="15" ry="15" />
<ellipse fill="#3e3836" fill-opacity="0.501961" cx="412" cy="699" rx="17" ry="17" />
<ellipse fill="#947d71" fill-opacity="0.501961" cx="248" cy="699" rx="66" ry="66" />
<ellipse fill="#94552a" fill-opacity="0.501961" cx="388" cy="517" rx="17" ry="17" />
<ellipse fill="#cbbdb3" fill-opacity="0.501961" cx="352" cy="602" rx="26" ry="26" />
<ellipse fill="#c6b2a8" fill-opacity="0.501961" cx="480" cy="519" rx="18" ry="18" />
<ellipse fill="#9e8679" fill-opacity="0.501961" cx="518" cy="563" rx="57" ry="57" />
<ellipse fill="#271d19" fill-opacity="0.501961" cx="227" cy="133" rx="38" ry="38" />
<ellipse fill="#392d27" fill-opacity="0.501961" cx="490" cy="448" rx="42" ry="42" />
<ellipse fill="#2b241d" fill-opacity="0.501961" cx="327" cy="513" rx="13" ry="13" />
<ellipse fill="#554439" fill-opacity="0.501961" cx="359" cy="211" rx="42" ry="42" />
<ellipse fill="#39271f" fill-opacity="0.501961" cx="210" cy="521" rx="27" ry="27" />
<ellipse fill="#556c67" fill-opacity="0.501961" cx="65" cy="637" rx="38" ry="38" />
<ellipse fill="#e39b6d" fill-opacity="0.501961" cx="296" cy="520" rx="16" ry="16" />
<ellipse fill="#493624" fill-opacity="0.501961" cx="183" cy="417" rx="18" ry="18" />
<ellipse fill="#a89489" fill-opacity="0.501961" cx="413" cy="675" rx="19" ry="19" />
<ellipse fill="#597673" fill-opacity="0.501961" cx="147" cy="433" rx="25" ry="25" />
<ellipse fill="#dcd2cb" fill-opacity="0.501961" cx="397" cy="561" rx="26" ry="26" />
<ellipse fill="#524135" fill-opacity="0.501961" cx="548" cy="442" rx="39" ry="39" />
<ellipse fill="#587570" fill-opacity="0.501961" cx="471" cy="5" rx="36" ry="36" />
<ellipse fill="#efa26f" fill-opacity="0.501961" cx="258" cy="509" rx="9" ry="9" />
<ellipse fill="#e8c5b7" fill-opacity="0.501961" cx="366" cy="315" rx="25" ry="25" />
<ellipse fill="#4f3d34" fill-opacity="0.501961" cx="512" cy="696" rx="58" ry="58" />
<ellipse fill="#dda589" fill-opacity="0.501961" cx="344" cy="417" rx="34" ry="34" />
<ellipse fill="#a05929" fill-opacity="0.501961" cx="362" cy="537" rx="18" ry="18" />
<ellipse fill="#272e30" fill-opacity="0.501961" cx="227" cy="375" rx="10" ry="10" />
<ellipse fill="#1d1613" fill-opacity="0.501961" cx="327" cy="278" rx="18" ry="18" />
<ellipse fill="#985120" fill-opacity="0.501961" cx="317" cy="350" rx="18" ry="18" />
<ellipse fill="#a18a7c" fill-opacity="0.501961" cx="492" cy="617" rx="25" ry="25" />
<ellipse fill="#241b17" fill-opacity="0.501961" cx="418" cy="266" rx="25" ry="25" />
<ellipse fill="#805d48" fill-opacity="0.501961" cx="435" cy="319" rx="24" ry="24" />
<ellipse fill="#b8a79c" fill-opacity="0.501961" cx="235" cy="632" rx="22" ry="22" />
<ellipse fill="#b97a50" fill-opacity="0.501961" cx="375" cy="362" rx="20" ry="20" />
<ellipse fill="#673008" fill-opacity="0.501961" cx="288" cy="453" rx="8" ry="8" />
<ellipse fill="#472202" fill-opacity="0.501961" cx="249" cy="398" rx="7" ry="7" />
<ellipse fill="#3f322a" fill-opacity="0.501961" cx="326" cy="560" rx="23" ry="23" />
<ellipse fill="#2c241f" fill-opacity="0.501961" cx="155" cy="305" rx="35" ry="35" />
<ellipse fill="#8c5026" fill-opacity="0.501961" cx="206" cy="327" rx="22" ry="22" />
<ellipse fill="#332720" fill-opacity="0.501961" cx="450" cy="699" rx="26" ry="26" />
<ellipse fill="#e2a47e" fill-opacity="0.501961" cx="352" cy="357" rx="12" ry="12" />
<ellipse fill="#2d221c" fill-opacity="0.501961" cx="550" cy="633" rx="24" ry="24" />
<ellipse fill="#322924" fill-opacity="0.501961" cx="226" cy="595" rx="14" ry="14" />
<ellipse fill="#697870" fill-opacity="0.501961" cx="172" cy="72" rx="32" ry="32" />
<ellipse fill="#25130c" fill-opacity="0.501961" cx="48" cy="699" rx="15" ry="15" />
<ellipse fill="#877062" fill-opacity="0.501961" cx="454" cy="366" rx="13" ry="13" />
<ellipse fill="#362d26" fill-opacity="0.501961" cx="443" cy="414" rx="22" ry="22" />
<ellipse fill="#67776f" fill-opacity="0.501961" cx="158" cy="217" rx="25" ry="25" />
<ellipse fill="#596963" fill-opacity="0.501961" cx="107" cy="525" rx="32" ry="32" />
<ellipse fill="#2d231b" fill-opacity="0.501961" cx="296" cy="498" rx="9" ry="9" />
<ellipse fill="#673713" fill-opacity="0.501961" cx="236" cy="431" rx="11" ry="11" />
<ellipse fill="#7b6356" fill-opacity="0.501961" cx="314" cy="661" rx="15" ry="15" />
<ellipse fill="#d8a386" fill-opacity="0.501961" cx="280" cy="420" rx="30" ry="30" />
<ellipse fill="#755d51" fill-opacity="0.501961" cx="491" cy="563" rx="12" ry="12" />
<ellipse fill="#251d1a" fill-opacity="0.501961" cx="365" cy="262" rx="24" ry="24" />
<ellipse fill="#45362e" fill-opacity="0.501961" cx="460" cy="481" rx="27" ry="27" />
<ellipse fill="#46605c" fill-opacity="0.501961" cx="692" cy="307" rx="33" ry="33" />
<ellipse fill="#9e8578" fill-opacity="0.501961" cx="567" cy="523" rx="35" ry="35" />
<ellipse fill="#5a493e" fill-opacity="0.501961" cx="301" cy="238" rx="27" ry="27" />
<ellipse fill="#687265" fill-opacity="0.501961" cx="298" cy="0" rx="14" ry="14" />
<ellipse fill="#52301b" fill-opacity="0.501961" cx="188" cy="440" rx="15" ry="15" />
<ellipse fill="#67330d" fill-opacity="0.501961" cx="236" cy="345" rx="9" ry="9" />
<ellipse fill="#7a6356" fill-opacity="0.501961" cx="218" cy="648" rx="14" ry="14" />
<ellipse fill="#c69d82" fill-opacity="0.501961" cx="236" cy="388" rx="12" ry="12" />
<ellipse fill="#de9466" fill-opacity="0.501961" cx="231" cy="358" rx="11" ry="11" />
<ellipse fill="#d59167" fill-opacity="0.501961" cx="238" cy="326" rx="13" ry="13" />
<ellipse fill="#e4b39b" fill-opacity="0.501961" cx="257" cy="438" rx="15" ry="15" />
<ellipse fill="#af8e7e" fill-opacity="0.501961" cx="549" cy="480" rx="8" ry="8" />
<ellipse fill="#40332a" fill-opacity="0.501961" cx="514" cy="483" rx="27" ry="27" />
<ellipse fill="#e3dbd3" fill-opacity="0.501961" cx="252" cy="613" rx="10" ry="10" />
<ellipse fill="#ac632f" fill-opacity="0.501961" cx="327" cy="399" rx="10" ry="10" />
<ellipse fill="#e3b194" fill-opacity="0.501961" cx="309" cy="468" rx="11" ry="11" />
<ellipse fill="#6a503e" fill-opacity="0.501961" cx="439" cy="458" rx="21" ry="21" />
<ellipse fill="#715a4d" fill-opacity="0.501961" cx="187" cy="640" rx="12" ry="12" />
<ellipse fill="#6c7165" fill-opacity="0.501961" cx="573" cy="422" rx="12" ry="12" />
<ellipse fill="#b1b3b2" fill-opacity="0.501961" cx="333" cy="379" rx="8" ry="8" />
<ellipse fill="#eab28f" fill-opacity="0.501961" cx="277" cy="513" rx="9" ry="9" />
<ellipse fill="#d19977" fill-opacity="0.501961" cx="283" cy="361" rx="21" ry="21" />
<ellipse fill="#b29d90" fill-opacity="0.501961" cx="194" cy="611" rx="21" ry="21" />
<ellipse fill="#3a3026" fill-opacity="0.501961" cx="271" cy="495" rx="12" ry="12" />
<ellipse fill="#4e2508" fill-opacity="0.501961" cx="232" cy="466" rx="14" ry="14" />
<ellipse fill="#45352b" fill-opacity="0.501961" cx="630" cy="671" rx="31" ry="31" />
<ellipse fill="#606e66" fill-opacity="0.501961" cx="76" cy="296" rx="34" ry="34" />
<ellipse fill="#352922" fill-opacity="0.501961" cx="405" cy="37" rx="30" ry="30" />
<ellipse fill="#30231b" fill-opacity="0.501961" cx="480" cy="206" rx="19" ry="19" />
<ellipse fill="#5b6f68" fill-opacity="0.501961" cx="90" cy="627" rx="28" ry="28" />
<ellipse fill="#647c74" fill-opacity="0.501961" cx="268" cy="0" rx="17" ry="17" />
<ellipse fill="#7f665b" fill-opacity="0.501961" cx="166" cy="534" rx="26" ry="26" />
<ellipse fill="#6c3308" fill-opacity="0.501961" cx="275" cy="455" rx="7" ry="7" />
<ellipse fill="#59655d" fill-opacity="0.501961" cx="632" cy="230" rx="33" ry="33" />
<ellipse fill="#a68b7d" fill-opacity="0.501961" cx="170" cy="675" rx="27" ry="27" />
<ellipse fill="#65736c" fill-opacity="0.501961" cx="123" cy="246" rx="33" ry="33" />
<ellipse fill="#271e18" fill-opacity="0.501961" cx="261" cy="288" rx="16" ry="16" />
<ellipse fill="#bc7b55" fill-opacity="0.501961" cx="390" cy="466" rx="25" ry="25" />
<ellipse fill="#7d6558" fill-opacity="0.501961" cx="440" cy="593" rx="11" ry="11" />
<ellipse fill="#301100" fill-opacity="0.501961" cx="347" cy="340" rx="5" ry="5" />
<ellipse fill="#6f401a" fill-opacity="0.501961" cx="255" cy="384" rx="8" ry="8" />
<ellipse fill="#705a4d" fill-opacity="0.501961" cx="258" cy="545" rx="24" ry="24" />
<ellipse fill="#72584d" fill-opacity="0.501961" cx="529" cy="518" rx="10" ry="10" />
<ellipse fill="#796356" fill-opacity="0.501961" cx="461" cy="574" rx="10" ry="10" />
<ellipse fill="#32251e" fill-opacity="0.501961" cx="591" cy="383" rx="30" ry="30" />
<ellipse fill="#dfd5cd" fill-opacity="0.501961" cx="304" cy="609" rx="11" ry="11" />
<ellipse fill="#61675e" fill-opacity="0.501961" cx="499" cy="162" rx="30" ry="30" />
<ellipse fill="#31261f" fill-opacity="0.501961" cx="439" cy="146" rx="36" ry="36" />
<ellipse fill="#33221b" fill-opacity="0.501961" cx="682" cy="691" rx="26" ry="26" />
<ellipse fill="#4d3e35" fill-opacity="0.501961" cx="431" cy="223" rx="29" ry="29" />
<ellipse fill="#100904" fill-opacity="0.501961" cx="404" cy="699" rx="8" ry="8" />
<ellipse fill="#211b18" fill-opacity="0.501961" cx="294" cy="284" rx="16" ry="16" />
<ellipse fill="#352a24" fill-opacity="0.501961" cx="209" cy="219" rx="29" ry="29" />
<ellipse fill="#382a22" fill-opacity="0.501961" cx="500" cy="656" rx="17" ry="17" />
<ellipse fill="#c6b3a9" fill-opacity="0.501961" cx="433" cy="517" rx="16" ry="16" />
<ellipse fill="#271814" fill-opacity="0.501961" cx="101" cy="686" rx="26" ry="26" />
<ellipse fill="#c6b4a9" fill-opacity="0.501961" cx="279" cy="637" rx="13" ry="13" />
<ellipse fill="#b6a397" fill-opacity="0.501961" cx="445" cy="665" rx="9" ry="9" />
<ellipse fill="#914f21" fill-opacity="0.501961" cx="411" cy="505" rx="9" ry="9" />
<ellipse fill="#4a270d" fill-opacity="0.501961" cx="250" cy="352" rx="8" ry="8" />
<ellipse fill="#33261e" fill-opacity="0.501961" cx="558" cy="456" rx="17" ry="17" />
<ellipse fill="#6a5446" fill-opacity="0.501961" cx="540" cy="363" rx="14" ry="14" />
<ellipse fill="#7a3d14" fill-opacity="0.501961" cx="198" cy="491" rx="14" ry="14" />
<ellipse fill="#823d0b" fill-opacity="0.501961" cx="301" cy="455" rx="6" ry="6" />
<ellipse fill="#dbd0c8" fill-opacity="0.501961" cx="363" cy="582" rx="17" ry="17" />
<ellipse fill="#352a22" fill-opacity="0.501961" cx="272" cy="586" rx="13" ry="13" />
<ellipse fill="#585f58" fill-opacity="0.501961" cx="595" cy="182" rx="52" ry="52" />
<ellipse fill="#d8cec4" fill-opacity="0.501961" cx="479" cy="602" rx="7" ry="7" />
<ellipse fill="#d49d7e" fill-opacity="0.501961" cx="346" cy="472" rx="24" ry="24" />
<ellipse fill="#59463c" fill-opacity="0.501961" cx="549" cy="699" rx="44" ry="44" />
<ellipse fill="#5a5f57" fill-opacity="0.501961" cx="611" cy="595" rx="34" ry="34" />
<ellipse fill="#7d6659" fill-opacity="0.501961" cx="350" cy="641" rx="13" ry="13" />
<ellipse fill="#e4dcd6" fill-opacity="0.501961" cx="280" cy="616" rx="9" ry="9" />
<ellipse fill="#a1897d" fill-opacity="0.501961" cx="365" cy="616" rx="13" ry="13" />
<ellipse fill="#c98d6a" fill-opacity="0.501961" cx="359" cy="509" rx="21" ry="21" />
<ellipse fill="#493a31" fill-opacity="0.501961" cx="476" cy="684" rx="28" ry="28" />
<ellipse fill="#703811" fill-opacity="0.501961" cx="354" cy="554" rx="8" ry="8" />
<ellipse fill="#322721" fill-opacity="0.501961" cx="440" cy="73" rx="31" ry="31" />
<ellipse fill="#d6a78d" fill-opacity="0.501961" cx="397" cy="332" rx="22" ry="22" />
<ellipse fill="#ae998d" fill-opacity="0.501961" cx="521" cy="596" rx="23" ry="23" />
<ellipse fill="#3d3029" fill-opacity="0.501961" cx="112" cy="367" rx="36" ry="36" />
<ellipse fill="#4d3f35" fill-opacity="0.501961" cx="249" cy="251" rx="27" ry="27" />
<ellipse fill="#251e1a" fill-opacity="0.501961" cx="230" cy="286" rx="17" ry="17" />
<ellipse fill="#48544d" fill-opacity="0.501961" cx="687" cy="637" rx="29" ry="29" />
<ellipse fill="#885029" fill-opacity="0.501961" cx="379" cy="532" rx="10" ry="10" />
<ellipse fill="#a46237" fill-opacity="0.501961" cx="200" cy="392" rx="14" ry="14" />
<ellipse fill="#876e62" fill-opacity="0.501961" cx="148" cy="617" rx="16" ry="16" />
<ellipse fill="#44362e" fill-opacity="0.501961" cx="215" cy="536" rx="34" ry="34" />
<ellipse fill="#846a5d" fill-opacity="0.501961" cx="417" cy="609" rx="11" ry="11" />
<ellipse fill="#636e67" fill-opacity="0.501961" cx="120" cy="435" rx="31" ry="31" />
<ellipse fill="#9c867d" fill-opacity="0.501961" cx="268" cy="482" rx="7" ry="7" />
<ellipse fill="#32241e" fill-opacity="0.501961" cx="587" cy="640" rx="19" ry="19" />
<ellipse fill="#5e6962" fill-opacity="0.501961" cx="579" cy="63" rx="110" ry="110" />
<ellipse fill="#c87c49" fill-opacity="0.501961" cx="297" cy="306" rx="8" ry="8" />
<ellipse fill="#4a2607" fill-opacity="0.501961" cx="223" cy="339" rx="6" ry="6" />
<ellipse fill="#dc9061" fill-opacity="0.501961" cx="250" cy="451" rx="12" ry="12" />
<ellipse fill="#e0aa89" fill-opacity="0.501961" cx="414" cy="388" rx="14" ry="14" />
<ellipse fill="#3b342b" fill-opacity="0.501961" cx="169" cy="482" rx="21" ry="21" />
<ellipse fill="#6b766e" fill-opacity="0.501961" cx="162" cy="122" rx="31" ry="31" />
<ellipse fill="#3f3229" fill-opacity="0.501961" cx="522" cy="245" rx="31" ry="31" />
<ellipse fill="#322520" fill-opacity="0.501961" cx="216" cy="158" rx="30" ry="30" />
<ellipse fill="#e5baa4" fill-opacity="0.501961" cx="270" cy="387" rx="11" ry="11" />
<ellipse fill="#54635d" fill-opacity="0.501961" cx="624" cy="478" rx="35" ry="35" />
<ellipse fill="#edd4cb" fill-opacity="0.501961" cx="258" cy="445" rx="7" ry="7" />
<ellipse fill="#566c63" fill-opacity="0.501961" cx="579" cy="605" rx="13" ry="13" />
<ellipse fill="#4f3928" fill-opacity="0.501961" cx="332" cy="534" rx="16" ry="16" />
<ellipse fill="#e5bba6" fill-opacity="0.501961" cx="386" cy="309" rx="18" ry="18" />
<ellipse fill="#302620" fill-opacity="0.501961" cx="255" cy="51" rx="32" ry="32" />
<ellipse fill="#697d76" fill-opacity="0.501961" cx="238" cy="0" rx="22" ry="22" />
<ellipse fill="#c4aea3" fill-opacity="0.501961" cx="140" cy="570" rx="9" ry="9" />
<ellipse fill="#846a5e" fill-opacity="0.501961" cx="171" cy="561" rx="24" ry="24" />
<ellipse fill="#967d6d" fill-opacity="0.501961" cx="327" cy="623" rx="9" ry="9" />
<ellipse fill="#a59c93" fill-opacity="0.501961" cx="212" cy="379" rx="8" ry="8" />
<ellipse fill="#5f4b40" fill-opacity="0.501961" cx="603" cy="674" rx="17" ry="17" />
<ellipse fill="#e2a27b" fill-opacity="0.501961" cx="290" cy="465" rx="8" ry="8" />
<ellipse fill="#535c54" fill-opacity="0.501961" cx="48" cy="659" rx="31" ry="31" />
<ellipse fill="#9c8679" fill-opacity="0.501961" cx="412" cy="672" rx="22" ry="22" />
<ellipse fill="#0f0901" fill-opacity="0.501961" cx="418" cy="699" rx="6" ry="6" />
<ellipse fill="#674e40" fill-opacity="0.501961" cx="254" cy="656" rx="7" ry="7" />
<ellipse fill="#bda89c" fill-opacity="0.501961" cx="156" cy="594" rx="10" ry="10" />
<ellipse fill="#d5c2b7" fill-opacity="0.501961" cx="348" cy="635" rx="5" ry="5" />
<ellipse fill="#856a5c" fill-opacity="0.501961" cx="245" cy="480" rx="10" ry="10" />
<ellipse fill="#d9cac2" fill-opacity="0.501961" cx="218" cy="639" rx="5" ry="5" />
<ellipse fill="#e7dfd9" fill-opacity="0.501961" cx="334" cy="605" rx="9" ry="9" />
<ellipse fill="#b9a494" fill-opacity="0.501961" cx="479" cy="650" rx="6" ry="6" />
<ellipse fill="#674f3e" fill-opacity="0.501961" cx="388" cy="625" rx="7" ry="7" />
<ellipse fill="#784116" fill-opacity="0.501961" cx="363" cy="346" rx="6" ry="6" />
<ellipse fill="#ca8664" fill-opacity="0.501961" cx="211" cy="411" rx="16" ry="16" />
<ellipse fill="#c2b2a7" fill-opacity="0.501961" cx="422" cy="641" rx="11" ry="11" />
<ellipse fill="#51392c" fill-opacity="0.501961" cx="325" cy="647" rx="5" ry="5" />
<ellipse fill="#cc8b60" fill-opacity="0.501961" cx="329" cy="477" rx="12" ry="12" />
<ellipse fill="#876956" fill-opacity="0.501961" cx="289" cy="550" rx="20" ry="20" />
<ellipse fill="#616f67" fill-opacity="0.501961" cx="130" cy="497" rx="33" ry="33" />
<ellipse fill="#6f594d" fill-opacity="0.501961" cx="518" cy="486" rx="10" ry="10" />
<ellipse fill="#846b60" fill-opacity="0.501961" cx="515" cy="545" rx="11" ry="11" />
<ellipse fill="#e7b9a8" fill-opacity="0.501961" cx="360" cy="416" rx="15" ry="15" />
<ellipse fill="#504036" fill-opacity="0.501961" cx="324" cy="503" rx="13" ry="13" />
<ellipse fill="#362a22" fill-opacity="0.501961" cx="292" cy="40" rx="34" ry="34" />
<ellipse fill="#352922" fill-opacity="0.501961" cx="600" cy="287" rx="32" ry="32" />
<ellipse fill="#ab6532" fill-opacity="0.501961" cx="361" cy="290" rx="5" ry="5" />
<ellipse fill="#9f8678" fill-opacity="0.501961" cx="148" cy="648" rx="30" ry="30" />
<ellipse fill="#612a00" fill-opacity="0.501961" cx="252" cy="464" rx="7" ry="7" />
<ellipse fill="#c17c50" fill-opacity="0.501961" cx="242" cy="363" rx="9" ry="9" />
<ellipse fill="#3b2d23" fill-opacity="0.501961" cx="307" cy="586" rx="10" ry="10" />
<ellipse fill="#dfd4cb" fill-opacity="0.501961" cx="377" cy="622" rx="5" ry="5" />
<ellipse fill="#401700" fill-opacity="0.501961" cx="339" cy="341" rx="4" ry="4" />
<ellipse fill="#c2835a" fill-opacity="0.501961" cx="305" cy="522" rx="12" ry="12" />
<ellipse fill="#d2a186" fill-opacity="0.501961" cx="267" cy="329" rx="15" ry="15" />
<ellipse fill="#ccbeb5" fill-opacity="0.501961" cx="460" cy="636" rx="8" ry="8" />
<ellipse fill="#56625b" fill-opacity="0.501961" cx="673" cy="280" rx="30" ry="30" />
<ellipse fill="#7e6256" fill-opacity="0.501961" cx="283" cy="658" rx="10" ry="10" />
<ellipse fill="#757b6e" fill-opacity="0.501961" cx="322" cy="0" rx="7" ry="7" />
<ellipse fill="#28211a" fill-opacity="0.501961" cx="471" cy="357" rx="9" ry="9" />
<ellipse fill="#502709" fill-opacity="0.501961" cx="234" cy="445" rx="7" ry="7" />
<ellipse fill="#cf9571" fill-opacity="0.501961" cx="296" cy="382" rx="18" ry="18" />
<ellipse fill="#45554e" fill-opacity="0.501961" cx="698" cy="355" rx="32" ry="32" />
<ellipse fill="#796153" fill-opacity="0.501961" cx="373" cy="187" rx="8" ry="8" />
<ellipse fill="#b9754b" fill-opacity="0.501961" cx="222" cy="326" rx="11" ry="11" />
</g>
</svg>