<svg xmlns="http://www.w3.org/2000/svg" version="1.1" width="700" height="525">
<rect x="0" y="0" width="700" height="525" fill="#352c1f" />
<g transform="scale(1.000000) translate(0.5 0.5)">
<ellipse fill="#fffff4" fill-opacity="0.501961" cx="372" cy="248" rx="127" ry="127" />
<ellipse fill="#ffd29b" fill-opacity="0.501961" cx="375" cy="356" rx="90" ry="90" />
<ellipse fill="#ffffe7" fill-opacity="0.501961" cx="383" cy="174" rx="75" ry="75" />
<ellipse fill="#000000" fill-opacity="0.501961" cx="527" cy="206" rx="74" ry="74" />
<ellipse fill="#000000" fill-opacity="0.501961" cx="37" cy="238" rx="239" ry="239" />
<ellipse fill="#ab6231" fill-opacity="0.501961" cx="365" cy="81" rx="63" ry="63" />
<ellipse fill="#ffebbc" fill-opacity="0.501961" cx="321" cy="190" rx="59" ry="59" />
<ellipse fill="#ffc397" fill-opacity="0.501961" cx="401" cy="421" rx="43" ry="43" />
<ellipse fill="#922e09" fill-opacity="0.501961" cx="317" cy="371" rx="55" ry="55" />
<ellipse fill="#fff6cf" fill-opacity="0.501961" cx="424" cy="304" rx="45" ry="45" />
<ellipse fill="#000000" fill-opacity="0.501961" cx="699" cy="192" rx="233" ry="233" />
<ellipse fill="#fffff0" fill-opacity="0.501961" cx="398" cy="184" rx="54" ry="54" />
<ellipse fill="#8c2200" fill-opacity="0.501961" cx="306" cy="264" rx="30" ry="30" />
<ellipse fill="#290b00" fill-opacity="0.501961" cx="334" cy="111" rx="33" ry="33" />
<ellipse fill="#941e00" fill-opacity="0.501961" cx="395" cy="257" rx="24" ry="24" />
<ellipse fill="#cb8a5d" fill-opacity="0.501961" cx="441" cy="98" rx="34" ry="34" />
<ellipse fill="#ffd49e" fill-opacity="0.501961" cx="458" cy="275" rx="35" ry="35" />
<ellipse fill="#000500" fill-opacity="0.501961" cx="206" cy="481" rx="136" ry="136" />
<ellipse fill="#ffcea0" fill-opacity="0.501961" cx="314" cy="309" rx="33" ry="33" />
<ellipse fill="#da9855" fill-opacity="0.501961" cx="248" cy="58" rx="23" ry="23" />
<ellipse fill="#000000" fill-opacity="0.501961" cx="588" cy="50" rx="129" ry="129" />
<ellipse fill="#ffffff" fill-opacity="0.501961" cx="373" cy="298" rx="29" ry="29" />
<ellipse fill="#dfa774" fill-opacity="0.501961" cx="354" cy="50" rx="26" ry="26" />
<ellipse fill="#000000" fill-opacity="0.501961" cx="489" cy="336" rx="29" ry="29" />
<ellipse fill="#b24e18" fill-opacity="0.501961" cx="258" cy="297" rx="36" ry="36" />
<ellipse fill="#c18052" fill-opacity="0.501961" cx="464" cy="148" rx="25" ry="25" />
<ellipse fill="#000000" fill-opacity="0.501961" cx="77" cy="151" rx="176" ry="176" />
<ellipse fill="#8e4e1b" fill-opacity="0.501961" cx="253" cy="129" rx="48" ry="48" />
<ellipse fill="#010c08" fill-opacity="0.501961" cx="476" cy="383" rx="30" ry="30" />
<ellipse fill="#ffd1ac" fill-opacity="0.501961" cx="421" cy="336" rx="42" ry="42" />
<ellipse fill="#000a07" fill-opacity="0.501961" cx="663" cy="436" rx="220" ry="220" />
<ellipse fill="#000000" fill-opacity="0.501961" cx="428" cy="3" rx="42" ry="42" />
<ellipse fill="#000000" fill-opacity="0.501961" cx="388" cy="524" rx="52" ry="52" />
<ellipse fill="#882200" fill-opacity="0.501961" cx="365" cy="342" rx="19" ry="19" />
<ellipse fill="#fff7d3" fill-opacity="0.501961" cx="420" cy="137" rx="26" ry="26" />
<ellipse fill="#ffefd5" fill-opacity="0.501961" cx="340" cy="196" rx="52" ry="52" />
<ellipse fill="#761c00" fill-opacity="0.501961" cx="331" cy="262" rx="19" ry="19" />
<ellipse fill="#84390d" fill-opacity="0.501961" cx="304" cy="424" rx="35" ry="35" />
<ellipse fill="#000000" fill-opacity="0.501961" cx="161" cy="0" rx="80" ry="80" />
<ellipse fill="#ffb491" fill-opacity="0.501961" cx="357" cy="426" rx="24" ry="24" />
<ellipse fill="#ffebac" fill-opacity="0.501961" cx="441" cy="232" rx="19" ry="19" />
<ellipse fill="#ffa86e" fill-opacity="0.501961" cx="288" cy="226" rx="25" ry="25" />
<ellipse fill="#691e00" fill-opacity="0.501961" cx="479" cy="252" rx="15" ry="15" />
<ellipse fill="#000300" fill-opacity="0.501961" cx="12" cy="515" rx="47" ry="47" />
<ellipse fill="#451f00" fill-opacity="0.501961" cx="244" cy="207" rx="32" ry="32" />
<ellipse fill="#000100" fill-opacity="0.501961" cx="260" cy="495" rx="61" ry="61" />
<ellipse fill="#400400" fill-opacity="0.501961" cx="345" cy="347" rx="14" ry="14" />
<ellipse fill="#72360f" fill-opacity="0.501961" cx="373" cy="463" rx="24" ry="24" />
<ellipse fill="#714c2f" fill-opacity="0.501961" cx="397" cy="74" rx="41" ry="41" />
<ellipse fill="#000000" fill-opacity="0.501961" cx="640" cy="183" rx="164" ry="164" />
<ellipse fill="#32332b" fill-opacity="0.501961" cx="544" cy="477" rx="98" ry="98" />
<ellipse fill="#000000" fill-opacity="0.501961" cx="481" cy="20" rx="48" ry="48" />
<ellipse fill="#000000" fill-opacity="0.501961" cx="304" cy="261" rx="12" ry="12" />
<ellipse fill="#fff0d8" fill-opacity="0.501961" cx="421" cy="293" rx="31" ry="31" />
<ellipse fill="#000100" fill-opacity="0.501961" cx="208" cy="377" rx="63" ry="63" />
<ellipse fill="#22291f" fill-opacity="0.501961" cx="100" cy="454" rx="80" ry="80" />
<ellipse fill="#ffc5a0" fill-opacity="0.501961" cx="391" cy="410" rx="30" ry="30" />
<ellipse fill="#100200" fill-opacity="0.501961" cx="283" cy="0" rx="43" ry="43" />
<ellipse fill="#ffcf9e" fill-opacity="0.501961" cx="286" cy="296" rx="15" ry="15" />
<ellipse fill="#000600" fill-opacity="0.501961" cx="58" cy="207" rx="198" ry="198" />
<ellipse fill="#ff9654" fill-opacity="0.501961" cx="358" cy="251" rx="18" ry="18" />
<ellipse fill="#ffb88f" fill-opacity="0.501961" cx="319" cy="354" rx="15" ry="15" />
<ellipse fill="#b9420d" fill-opacity="0.501961" cx="429" cy="254" rx="12" ry="12" />
<ellipse fill="#9d3a13" fill-opacity="0.501961" cx="371" cy="401" rx="11" ry="11" />
<ellipse fill="#7d360e" fill-opacity="0.501961" cx="275" cy="331" rx="20" ry="20" />
<ellipse fill="#1a0f00" fill-opacity="0.501961" cx="489" cy="217" rx="34" ry="34" />
<ellipse fill="#ffbc94" fill-opacity="0.501961" cx="371" cy="364" rx="15" ry="15" />
<ellipse fill="#b47950" fill-opacity="0.501961" cx="309" cy="62" rx="16" ry="16" />
<ellipse fill="#ffffe8" fill-opacity="0.501961" cx="365" cy="310" rx="20" ry="20" />
<ellipse fill="#994f22" fill-opacity="0.501961" cx="271" cy="267" rx="24" ry="24" />
<ellipse fill="#fffff2" fill-opacity="0.501961" cx="360" cy="275" rx="14" ry="14" />
<ellipse fill="#f18553" fill-opacity="0.501961" cx="277" cy="185" rx="20" ry="20" />
<ellipse fill="#251200" fill-opacity="0.501961" cx="404" cy="253" rx="12" ry="12" />
<ellipse fill="#371700" fill-opacity="0.501961" cx="450" cy="118" rx="14" ry="14" />
<ellipse fill="#fff9e1" fill-opacity="0.501961" cx="385" cy="190" rx="50" ry="50" />
<ellipse fill="#f3a274" fill-opacity="0.501961" cx="446" cy="321" rx="21" ry="21" />
<ellipse fill="#291400" fill-opacity="0.501961" cx="358" cy="107" rx="17" ry="17" />
<ellipse fill="#ffd1af" fill-opacity="0.501961" cx="311" cy="167" rx="31" ry="31" />
<ellipse fill="#6e340b" fill-opacity="0.501961" cx="325" cy="454" rx="24" ry="24" />
<ellipse fill="#000000" fill-opacity="0.501961" cx="343" cy="524" rx="45" ry="45" />
<ellipse fill="#000000" fill-opacity="0.501961" cx="699" cy="395" rx="62" ry="62" />
<ellipse fill="#ffd3b0" fill-opacity="0.501961" cx="311" cy="311" rx="23" ry="23" />
<ellipse fill="#ffbd91" fill-opacity="0.501961" cx="487" cy="260" rx="8" ry="8" />
<ellipse fill="#743b14" fill-opacity="0.501961" cx="293" cy="381" rx="26" ry="26" />
<ellipse fill="#ffbb8b" fill-opacity="0.501961" cx="431" cy="358" rx="25" ry="25" />
<ellipse fill="#6e0600" fill-opacity="0.501961" cx="379" cy="338" rx="9" ry="9" />
<ellipse fill="#000000" fill-opacity="0.501961" cx="403" cy="0" rx="32" ry="32" />
<ellipse fill="#221b02" fill-opacity="0.501961" cx="308" cy="100" rx="26" ry="26" />
<ellipse fill="#9d7756" fill-opacity="0.501961" cx="400" cy="55" rx="21" ry="21" />
<ellipse fill="#ffc197" fill-opacity="0.501961" cx="466" cy="287" rx="25" ry="25" />
<ellipse fill="#561600" fill-opacity="0.501961" cx="473" cy="266" rx="8" ry="8" />
<ellipse fill="#d59c6f" fill-opacity="0.501961" cx="272" cy="99" rx="10" ry="10" />
<ellipse fill="#ecb781" fill-opacity="0.501961" cx="448" cy="69" rx="9" ry="9" />
<ellipse fill="#402503" fill-opacity="0.501961" cx="229" cy="172" rx="41" ry="41" />
<ellipse fill="#ffeec6" fill-opacity="0.501961" cx="452" cy="263" rx="17" ry="17" />
<ellipse fill="#fff4d7" fill-opacity="0.501961" cx="396" cy="356" rx="18" ry="18" />
<ellipse fill="#321600" fill-opacity="0.501961" cx="375" cy="73" rx="15" ry="15" />
<ellipse fill="#ca6237" fill-opacity="0.501961" cx="314" cy="135" rx="14" ry="14" />
<ellipse fill="#ffb073" fill-opacity="0.501961" cx="444" cy="194" rx="16" ry="16" />
<ellipse fill="#f5be8f" fill-opacity="0.501961" cx="334" cy="51" rx="11" ry="11" />
<ellipse fill="#ea8761" fill-opacity="0.501961" cx="340" cy="142" rx="14" ry="14" />
<ellipse fill="#e8b375" fill-opacity="0.501961" cx="239" cy="59" rx="11" ry="11" />
<ellipse fill="#fecda1" fill-opacity="0.501961" cx="461" cy="100" rx="8" ry="8" />
<ellipse fill="#c69f80" fill-opacity="0.501961" cx="468" cy="157" rx="12" ry="12" />
<ellipse fill="#050f07" fill-opacity="0.501961" cx="434" cy="488" rx="29" ry="29" />
<ellipse fill="#88502e" fill-opacity="0.501961" cx="396" cy="463" rx="15" ry="15" />
<ellipse fill="#e5af7d" fill-opacity="0.501961" cx="373" cy="46" rx="11" ry="11" />
<ellipse fill="#000300" fill-opacity="0.501961" cx="491" cy="331" rx="26" ry="26" />
<ellipse fill="#312e25" fill-opacity="0.501961" cx="490" cy="390" rx="32" ry="32" />
<ellipse fill="#281200" fill-opacity="0.501961" cx="276" cy="71" rx="18" ry="18" />
<ellipse fill="#e58d63" fill-opacity="0.501961" cx="399" cy="273" rx="14" ry="14" />
<ellipse fill="#000600" fill-opacity="0.501961" cx="636" cy="78" rx="152" ry="152" />
<ellipse fill="#ab8351" fill-opacity="0.501961" cx="255" cy="88" rx="12" ry="12" />
<ellipse fill="#fff2dd" fill-opacity="0.501961" cx="331" cy="199" rx="35" ry="35" />
<ellipse fill="#b96946" fill-opacity="0.501961" cx="431" cy="421" rx="15" ry="15" />
<ellipse fill="#28281e" fill-opacity="0.501961" cx="101" cy="395" rx="36" ry="36" />
<ellipse fill="#b07c5a" fill-opacity="0.501961" cx="470" cy="118" rx="11" ry="11" />
<ellipse fill="#ffd6ab" fill-opacity="0.501961" cx="434" cy="225" rx="24" ry="24" />
<ellipse fill="#472b10" fill-opacity="0.501961" cx="428" cy="85" rx="16" ry="16" />
<ellipse fill="#937253" fill-opacity="0.501961" cx="433" cy="63" rx="16" ry="16" />
<ellipse fill="#532300" fill-opacity="0.501961" cx="281" cy="264" rx="13" ry="13" />
<ellipse fill="#000200" fill-opacity="0.501961" cx="590" cy="336" rx="60" ry="60" />
<ellipse fill="#481e01" fill-opacity="0.501961" cx="234" cy="278" rx="20" ry="20" />
<ellipse fill="#9b4314" fill-opacity="0.501961" cx="380" cy="260" rx="15" ry="15" />
<ellipse fill="#502402" fill-opacity="0.501961" cx="245" cy="43" rx="13" ry="13" />
<ellipse fill="#ae7b51" fill-opacity="0.501961" cx="266" cy="44" rx="12" ry="12" />
<ellipse fill="#000700" fill-opacity="0.501961" cx="228" cy="432" rx="47" ry="47" />
<ellipse fill="#3c1b00" fill-opacity="0.501961" cx="333" cy="24" rx="16" ry="16" />
<ellipse fill="#fffff1" fill-opacity="0.501961" cx="482" cy="286" rx="9" ry="9" />
<ellipse fill="#2c2d25" fill-opacity="0.501961" cx="650" cy="499" rx="43" ry="43" />
<ellipse fill="#efa375" fill-opacity="0.501961" cx="272" cy="290" rx="11" ry="11" />
<ellipse fill="#ffedcd" fill-opacity="0.501961" cx="390" cy="423" rx="13" ry="13" />
<ellipse fill="#fca06f" fill-opacity="0.501961" cx="330" cy="240" rx="13" ry="13" />
<ellipse fill="#fffae0" fill-opacity="0.501961" cx="425" cy="135" rx="15" ry="15" />
<ellipse fill="#332604" fill-opacity="0.501961" cx="489" cy="174" rx="20" ry="20" />
<ellipse fill="#cca07f" fill-opacity="0.501961" cx="458" cy="87" rx="10" ry="10" />
<ellipse fill="#200300" fill-opacity="0.501961" cx="478" cy="252" rx="8" ry="8" />
<ellipse fill="#7d2906" fill-opacity="0.501961" cx="472" cy="277" rx="5" ry="5" />
<ellipse fill="#ff9672" fill-opacity="0.501961" cx="489" cy="253" rx="5" ry="5" />
<ellipse fill="#c86641" fill-opacity="0.501961" cx="400" cy="116" rx="13" ry="13" />
<ellipse fill="#9c7554" fill-opacity="0.501961" cx="323" cy="80" rx="12" ry="12" />
<ellipse fill="#371700" fill-opacity="0.501961" cx="363" cy="58" rx="8" ry="8" />
<ellipse fill="#cb6644" fill-opacity="0.501961" cx="335" cy="311" rx="8" ry="8" />
<ellipse fill="#000100" fill-opacity="0.501961" cx="0" cy="361" rx="58" ry="58" />
<ellipse fill="#fff3dc" fill-opacity="0.501961" cx="416" cy="306" rx="25" ry="25" />
<ellipse fill="#ffeec9" fill-opacity="0.501961" cx="485" cy="274" rx="8" ry="8" />
<ellipse fill="#e49364" fill-opacity="0.501961" cx="429" cy="387" rx="20" ry="20" />
<ellipse fill="#642900" fill-opacity="0.501961" cx="334" cy="263" rx="13" ry="13" />
<ellipse fill="#ffd2af" fill-opacity="0.501961" cx="360" cy="424" rx="13" ry="13" />
<ellipse fill="#ca7a55" fill-opacity="0.501961" cx="372" cy="128" rx="14" ry="14" />
<ellipse fill="#ffdda7" fill-opacity="0.501961" cx="345" cy="61" rx="7" ry="7" />
<ellipse fill="#6a3912" fill-opacity="0.501961" cx="289" cy="52" rx="18" ry="18" />
<ellipse fill="#ee986e" fill-opacity="0.501961" cx="422" cy="109" rx="11" ry="11" />
<ellipse fill="#2d1f07" fill-opacity="0.501961" cx="315" cy="102" rx="27" ry="27" />
<ellipse fill="#c56b4d" fill-opacity="0.501961" cx="357" cy="399" rx="15" ry="15" />
<ellipse fill="#000500" fill-opacity="0.501961" cx="159" cy="0" rx="67" ry="67" />
<ellipse fill="#fffff0" fill-opacity="0.501961" cx="440" cy="279" rx="14" ry="14" />
<ellipse fill="#2e2f27" fill-opacity="0.501961" cx="630" cy="453" rx="34" ry="34" />
<ellipse fill="#000a00" fill-opacity="0.501961" cx="522" cy="272" rx="31" ry="31" />
<ellipse fill="#000400" fill-opacity="0.501961" cx="540" cy="339" rx="37" ry="37" />
<ellipse fill="#b76034" fill-opacity="0.501961" cx="268" cy="215" rx="12" ry="12" />
<ellipse fill="#7d4620" fill-opacity="0.501961" cx="461" cy="179" rx="10" ry="10" />
<ellipse fill="#772f07" fill-opacity="0.501961" cx="345" cy="343" rx="16" ry="16" />
<ellipse fill="#fff3da" fill-opacity="0.501961" cx="415" cy="165" rx="34" ry="34" />
<ellipse fill="#2c2105" fill-opacity="0.501961" cx="492" cy="115" rx="19" ry="19" />
<ellipse fill="#f7bca2" fill-opacity="0.501961" cx="358" cy="139" rx="11" ry="11" />
<ellipse fill="#592608" fill-opacity="0.501961" cx="326" cy="387" rx="11" ry="11" />
<ellipse fill="#573309" fill-opacity="0.501961" cx="227" cy="33" rx="14" ry="14" />
<ellipse fill="#161100" fill-opacity="0.501961" cx="226" cy="235" rx="32" ry="32" />
<ellipse fill="#855741" fill-opacity="0.501961" cx="287" cy="95" rx="9" ry="9" />
<ellipse fill="#160d00" fill-opacity="0.501961" cx="321" cy="64" rx="6" ry="6" />
<ellipse fill="#000000" fill-opacity="0.501961" cx="365" cy="0" rx="15" ry="15" />
<ellipse fill="#1e1300" fill-opacity="0.501961" cx="432" cy="63" rx="7" ry="7" />
<ellipse fill="#000000" fill-opacity="0.501961" cx="303" cy="504" rx="36" ry="36" />
<ellipse fill="#ffc09a" fill-opacity="0.501961" cx="320" cy="339" rx="12" ry="12" />
<ellipse fill="#f89960" fill-opacity="0.501961" cx="377" cy="241" rx="11" ry="11" />
<ellipse fill="#1a0700" fill-opacity="0.501961" cx="264" cy="87" rx="7" ry="7" />
<ellipse fill="#940000" fill-opacity="0.501961" cx="379" cy="377" rx="5" ry="5" />
<ellipse fill="#c19861" fill-opacity="0.501961" cx="249" cy="74" rx="9" ry="9" />
<ellipse fill="#fca87f" fill-opacity="0.501961" cx="340" cy="293" rx="15" ry="15" />
<ellipse fill="#ab1c07" fill-opacity="0.501961" cx="390" cy="376" rx="6" ry="6" />
<ellipse fill="#000000" fill-opacity="0.501961" cx="238" cy="351" rx="26" ry="26" />
<ellipse fill="#ffffe7" fill-opacity="0.501961" cx="361" cy="269" rx="10" ry="10" />
<ellipse fill="#000500" fill-opacity="0.501961" cx="447" cy="14" rx="35" ry="35" />
<ellipse fill="#39220b" fill-opacity="0.501961" cx="457" cy="132" rx="10" ry="10" />
<ellipse fill="#692e13" fill-opacity="0.501961" cx="245" cy="306" rx="22" ry="22" />
<ellipse fill="#000500" fill-opacity="0.501961" cx="326" cy="0" rx="18" ry="18" />
<ellipse fill="#bd724d" fill-opacity="0.501961" cx="424" cy="437" rx="14" ry="14" />
<ellipse fill="#000000" fill-opacity="0.501961" cx="699" cy="451" rx="27" ry="27" />
<ellipse fill="#1d0000" fill-opacity="0.501961" cx="471" cy="315" rx="5" ry="5" />
<ellipse fill="#000a00" fill-opacity="0.501961" cx="0" cy="507" rx="32" ry="32" />
<ellipse fill="#bf6d40" fill-opacity="0.501961" cx="432" cy="250" rx="13" ry="13" />
<ellipse fill="#030800" fill-opacity="0.501961" cx="294" cy="84" rx="14" ry="14" />
<ellipse fill="#dd9a5d" fill-opacity="0.501961" cx="270" cy="123" rx="5" ry="5" />
<ellipse fill="#ba6440" fill-opacity="0.501961" cx="269" cy="168" rx="13" ry="13" />
<ellipse fill="#dc9e60" fill-opacity="0.501961" cx="227" cy="48" rx="5" ry="5" />
<ellipse fill="#7d512f" fill-opacity="0.501961" cx="354" cy="19" rx="11" ry="11" />
<ellipse fill="#d3a177" fill-opacity="0.501961" cx="367" cy="40" rx="12" ry="12" />
<ellipse fill="#ffcba3" fill-opacity="0.501961" cx="303" cy="230" rx="15" ry="15" />
<ellipse fill="#b9957b" fill-opacity="0.501961" cx="412" cy="49" rx="9" ry="9" />
<ellipse fill="#4d0000" fill-opacity="0.501961" cx="349" cy="381" rx="7" ry="7" />
<ellipse fill="#3c1e04" fill-opacity="0.501961" cx="382" cy="460" rx="10" ry="10" />
<ellipse fill="#000200" fill-opacity="0.501961" cx="239" cy="0" rx="23" ry="23" />
<ellipse fill="#ffd398" fill-opacity="0.501961" cx="384" cy="57" rx="5" ry="5" />
<ellipse fill="#fdbf8f" fill-opacity="0.501961" cx="290" cy="195" rx="19" ry="19" />
<ellipse fill="#b17a54" fill-opacity="0.501961" cx="358" cy="77" rx="10" ry="10" />
<ellipse fill="#e8a27b" fill-opacity="0.501961" cx="320" cy="364" rx="10" ry="10" />
<ellipse fill="#412000" fill-opacity="0.501961" cx="300" cy="32" rx="21" ry="21" />
<ellipse fill="#542706" fill-opacity="0.501961" cx="304" cy="441" rx="23" ry="23" />
<ellipse fill="#000c00" fill-opacity="0.501961" cx="384" cy="512" rx="32" ry="32" />
<ellipse fill="#fffae5" fill-opacity="0.501961" cx="372" cy="299" rx="22" ry="22" />
<ellipse fill="#692b0a" fill-opacity="0.501961" cx="391" cy="253" rx="12" ry="12" />
<ellipse fill="#c15f28" fill-opacity="0.501961" cx="415" cy="244" rx="8" ry="8" />
<ellipse fill="#612f0b" fill-opacity="0.501961" cx="351" cy="465" rx="20" ry="20" />
<ellipse fill="#3f2003" fill-opacity="0.501961" cx="387" cy="84" rx="13" ry="13" />
<ellipse fill="#9f4918" fill-opacity="0.501961" cx="263" cy="238" rx="9" ry="9" />
<ellipse fill="#4c2f14" fill-opacity="0.501961" cx="417" cy="74" rx="12" ry="12" />
<ellipse fill="#262720" fill-opacity="0.501961" cx="77" cy="487" rx="41" ry="41" />
<ellipse fill="#030b00" fill-opacity="0.501961" cx="147" cy="499" rx="19" ry="19" />
<ellipse fill="#000400" fill-opacity="0.501961" cx="103" cy="307" rx="61" ry="61" />
<ellipse fill="#ffcca2" fill-opacity="0.501961" cx="447" cy="240" rx="15" ry="15" />
<ellipse fill="#433519" fill-opacity="0.501961" cx="230" cy="98" rx="20" ry="20" />
<ellipse fill="#d0794e" fill-opacity="0.501961" cx="301" cy="281" rx="11" ry="11" />
<ellipse fill="#a85933" fill-opacity="0.501961" cx="288" cy="331" rx="15" ry="15" />
<ellipse fill="#f4c28a" fill-opacity="0.501961" cx="440" cy="70" rx="6" ry="6" />
<ellipse fill="#301500" fill-opacity="0.501961" cx="479" cy="235" rx="17" ry="17" />
<ellipse fill="#ac6e4b" fill-opacity="0.501961" cx="260" cy="270" rx="12" ry="12" />
<ellipse fill="#9a603e" fill-opacity="0.501961" cx="402" cy="459" rx="13" ry="13" />
<ellipse fill="#2a2001" fill-opacity="0.501961" cx="490" cy="145" rx="14" ry="14" />
<ellipse fill="#190e00" fill-opacity="0.501961" cx="258" cy="62" rx="5" ry="5" />
<ellipse fill="#ffe0c2" fill-opacity="0.501961" cx="317" cy="313" rx="14" ry="14" />
<ellipse fill="#492c10" fill-opacity="0.501961" cx="441" cy="85" rx="11" ry="11" />
<ellipse fill="#fdbb96" fill-opacity="0.501961" cx="419" cy="272" rx="12" ry="12" />
<ellipse fill="#e19d6f" fill-opacity="0.501961" cx="451" cy="337" rx="13" ry="13" />
<ellipse fill="#f7b78a" fill-opacity="0.501961" cx="470" cy="297" rx="16" ry="16" />
<ellipse fill="#fff8d5" fill-opacity="0.501961" cx="478" cy="295" rx="9" ry="9" />
<ellipse fill="#13190a" fill-opacity="0.501961" cx="148" cy="387" rx="37" ry="37" />
<ellipse fill="#996d54" fill-opacity="0.501961" cx="348" cy="444" rx="9" ry="9" />
<ellipse fill="#7e441f" fill-opacity="0.501961" cx="459" cy="199" rx="10" ry="10" />
<ellipse fill="#fff2d5" fill-opacity="0.501961" cx="422" cy="210" rx="25" ry="25" />
<ellipse fill="#fcc89d" fill-opacity="0.501961" cx="444" cy="176" rx="12" ry="12" />
<ellipse fill="#dfc0a4" fill-opacity="0.501961" cx="231" cy="99" rx="3" ry="3" />
<ellipse fill="#f39a6e" fill-opacity="0.501961" cx="437" cy="122" rx="7" ry="7" />
<ellipse fill="#360000" fill-opacity="0.501961" cx="339" cy="382" rx="5" ry="5" />
<ellipse fill="#40260d" fill-opacity="0.501961" cx="447" cy="107" rx="11" ry="11" />
<ellipse fill="#bc8352" fill-opacity="0.501961" cx="257" cy="98" rx="8" ry="8" />
<ellipse fill="#2b2b21" fill-opacity="0.501961" cx="55" cy="397" rx="16" ry="16" />
<ellipse fill="#000200" fill-opacity="0.501961" cx="653" cy="375" rx="46" ry="46" />
<ellipse fill="#ffd58d" fill-opacity="0.501961" cx="250" cy="86" rx="4" ry="4" />
<ellipse fill="#ce7e5c" fill-opacity="0.501961" cx="335" cy="419" rx="10" ry="10" />
<ellipse fill="#1b1c14" fill-opacity="0.501961" cx="460" cy="455" rx="27" ry="27" />
<ellipse fill="#7d5830" fill-opacity="0.501961" cx="483" cy="162" rx="7" ry="7" />
<ellipse fill="#1c1d14" fill-opacity="0.501961" cx="475" cy="398" rx="29" ry="29" />
<ellipse fill="#dba784" fill-opacity="0.501961" cx="314" cy="70" rx="6" ry="6" />
<ellipse fill="#553318" fill-opacity="0.501961" cx="391" cy="46" rx="9" ry="9" />
<ellipse fill="#5d3012" fill-opacity="0.501961" cx="266" cy="323" rx="16" ry="16" />
<ellipse fill="#ffe4a1" fill-opacity="0.501961" cx="263" cy="51" rx="4" ry="4" />
<ellipse fill="#1d1a02" fill-opacity="0.501961" cx="210" cy="105" rx="19" ry="19" />
<ellipse fill="#e88d5d" fill-opacity="0.501961" cx="390" cy="406" rx="10" ry="10" />
<ellipse fill="#000b02" fill-opacity="0.501961" cx="7" cy="427" rx="30" ry="30" />
<ellipse fill="#302201" fill-opacity="0.501961" cx="315" cy="260" rx="10" ry="10" />
<ellipse fill="#312f29" fill-opacity="0.501961" cx="553" cy="419" rx="36" ry="36" />
<ellipse fill="#fab784" fill-opacity="0.501961" cx="404" cy="235" rx="9" ry="9" />
<ellipse fill="#ffffe6" fill-opacity="0.501961" cx="253" cy="69" rx="3" ry="3" />
<ellipse fill="#ffb79a" fill-opacity="0.501961" cx="362" cy="372" rx="7" ry="7" />
<ellipse fill="#752b09" fill-opacity="0.501961" cx="222" cy="267" rx="8" ry="8" />
<ellipse fill="#f5b488" fill-opacity="0.501961" cx="288" cy="231" rx="16" ry="16" />
<ellipse fill="#955a36" fill-opacity="0.501961" cx="330" cy="42" rx="9" ry="9" />
<ellipse fill="#ecaf79" fill-opacity="0.501961" cx="276" cy="120" rx="4" ry="4" />
<ellipse fill="#000400" fill-opacity="0.501961" cx="190" cy="294" rx="31" ry="31" />
<ellipse fill="#af5f36" fill-opacity="0.501961" cx="413" cy="378" rx="7" ry="7" />
<ellipse fill="#b86a43" fill-opacity="0.501961" cx="446" cy="133" rx="7" ry="7" />
<ellipse fill="#ffc49e" fill-opacity="0.501961" cx="488" cy="264" rx="5" ry="5" />
<ellipse fill="#221000" fill-opacity="0.501961" cx="331" cy="65" rx="5" ry="5" />
<ellipse fill="#fff8c1" fill-opacity="0.501961" cx="232" cy="55" rx="4" ry="4" />
<ellipse fill="#fffdf4" fill-opacity="0.501961" cx="398" cy="346" rx="10" ry="10" />
<ellipse fill="#040100" fill-opacity="0.501961" cx="286" cy="110" rx="7" ry="7" />
<ellipse fill="#000800" fill-opacity="0.501961" cx="71" cy="430" rx="13" ry="13" />
<ellipse fill="#ffd5ab" fill-opacity="0.501961" cx="398" cy="390" rx="10" ry="10" />
<ellipse fill="#815138" fill-opacity="0.501961" cx="380" cy="114" rx="14" ry="14" />
<ellipse fill="#7e4520" fill-opacity="0.501961" cx="290" cy="366" rx="22" ry="22" />
<ellipse fill="#482003" fill-opacity="0.501961" cx="253" cy="78" rx="4" ry="4" />
<ellipse fill="#5d300e" fill-opacity="0.501961" cx="253" cy="150" rx="19" ry="19" />
<ellipse fill="#ca6649" fill-opacity="0.501961" cx="490" cy="248" rx="4" ry="4" />
<ellipse fill="#620800" fill-opacity="0.501961" cx="357" cy="381" rx="6" ry="6" />
<ellipse fill="#f4ac7f" fill-opacity="0.501961" cx="379" cy="352" rx="9" ry="9" />
<ellipse fill="#1a0e00" fill-opacity="0.501961" cx="365" cy="103" rx="8" ry="8" />
<ellipse fill="#ffe1b6" fill-opacity="0.501961" cx="323" cy="74" rx="3" ry="3" />
<ellipse fill="#be9a7d" fill-opacity="0.501961" cx="284" cy="120" rx="4" ry="4" />
<ellipse fill="#8c603f" fill-opacity="0.501961" cx="465" cy="80" rx="8" ry="8" />
<ellipse fill="#d18f67" fill-opacity="0.501961" cx="304" cy="66" rx="6" ry="6" />
<ellipse fill="#040900" fill-opacity="0.501961" cx="522" cy="287" rx="31" ry="31" />
<ellipse fill="#ffda95" fill-opacity="0.501961" cx="354" cy="66" rx="4" ry="4" />
<ellipse fill="#9a1300" fill-opacity="0.501961" cx="399" cy="378" rx="4" ry="4" />
<ellipse fill="#ba592a" fill-opacity="0.501961" cx="344" cy="255" rx="9" ry="9" />
<ellipse fill="#830000" fill-opacity="0.501961" cx="372" cy="380" rx="4" ry="4" />
<ellipse fill="#000500" fill-opacity="0.501961" cx="521" cy="0" rx="78" ry="78" />
<ellipse fill="#bb8e79" fill-opacity="0.501961" cx="474" cy="128" rx="6" ry="6" />
<ellipse fill="#fff0dc" fill-opacity="0.501961" cx="347" cy="207" rx="32" ry="32" />
<ellipse fill="#210e00" fill-opacity="0.501961" cx="241" cy="290" rx="9" ry="9" />
</g>
</svg>